#usda 1.0
(
    defaultPrim = "DrAnmarNeedleReadyTissue"
    doc = "Visual-only training overlay for DrAnmar needle-ready tissue; base physics geometry remains authoritative."
    metersPerUnit = 1
    upAxis = "Z"
)

def Xform "DrAnmarNeedleReadyTissue" (
    references = @./needle_ready_tissue_training.usda@</DrAnmarNeedleReadyTissue>
    customData = {
        string drAnmarAssetRole = "visual_overlay"
        bool drAnmarClinicalValidation = false
        string drAnmarGeometryLod = "training"
        bool drAnmarPhysicsAuthority = false
        string drAnmarVisualMeshBinding = "one_to_one_existing_deforming_visual_points"
    }
)
{
    def Scope "VisualMaterials" (
        references = @./visual/materials.usda@</NeedleReadyTissueVisualMaterials>
    )
    {
    }

    def Xform "RenderSupport" (
        references = @./visual/support_cassette.usda@</DrAnmarTissueRenderSupport>
    )
    {
    }

    over "Visual"
    {
        texCoord2f[] primvars:st = [
            (0, 0), (0.260458887, 0.333333333), (0.257007483, 0), (0, 0.0528222192), (0.171338322, 0.0561632871), (0.170403749, 0.397351598),
            (0, 0), (0, 0.333333333), (0.260458887, 0.333333333), (0, 0.0528222192), (0.222222222, 0.394028754), (0.222222222, 0.0528222192),
            (0, 0.0528222192), (0.170403749, 0.397351598), (0, 0.394028754), (0, 0.0528222192), (0, 0.394028754), (0.222222222, 0.394028754),
            (0.257007483, 0), (0.515727501, 0.333333333), (0.508893471, 0), (0.171338322, 0.0561632871), (0.339262314, 0.0594377762), (0.337411792, 0.400608226),
            (0.257007483, 0), (0.260458887, 0.333333333), (0.515727501, 0.333333333), (0.171338322, 0.0561632871), (0.337411792, 0.400608226), (0.170403749, 0.397351598),
            (0.508893471, 0), (0.764630402, 0.333333333), (0.754498099, 0), (0.339262314, 0.0594377762), (0.502998733, 0.0626306084), (0.500255103, 0.403783643),
            (0.508893471, 0), (0.515727501, 0.333333333), (0.764630402, 0.333333333), (0.339262314, 0.0594377762), (0.500255103, 0.403783643), (0.337411792, 0.400608226),
            (0.754498099, 0), (1.00522579, 0.333333333), (0.991905298, 0), (0.502998733, 0.0626306084), (0.661270198, 0.0657168748), (0.65766327, 0.406853075),
            (0.754498099, 0), (0.764630402, 0.333333333), (1.00522579, 0.333333333), (0.502998733, 0.0626306084), (0.65766327, 0.406853075), (0.500255103, 0.403783643),
            (0.991905298, 0), (1.23358481, 0.333333333), (1.21723828, 0), (0.661270198, 0.0657168748), (0.811492188, 0.0686461779), (0.807065867, 0.4097664),
            (0.991905298, 0), (1.00522579, 0.333333333), (1.23358481, 0.333333333), (0.661270198, 0.0657168748), (0.807065867, 0.4097664), (0.65766327, 0.406853075),
            (1.21723828, 0), (1.43327844, 0.333333333), (1.41428571, 0), (0.811492188, 0.0686461779), (0.942857143, 0.071207772), (0.937714286, 0.412314022),
            (1.21723828, 0), (1.23358481, 0.333333333), (1.43327844, 0.333333333), (0.811492188, 0.0686461779), (0.937714286, 0.412314022), (0.807065867, 0.4097664),
            (0, 0.071207772), (0.222222222, 0.105998181), (0.222222222, 0.446918509), (0, 0.412314022), (0, 0.071207772), (0.222222222, 0.446918509),
            (0, 0.333333333), (0.255808823, 0.666666667), (0.260458887, 0.333333333), (0, 0.333333333), (0, 0.666666667), (0.255808823, 0.666666667),
            (0.222222222, 0.0528222192), (0.444444444, 0.394028754), (0.444444444, 0.0528222192), (0.222222222, 0.0528222192), (0.222222222, 0.394028754), (0.444444444, 0.394028754),
            (0.260458887, 0.333333333), (0.506520037, 0.666666667), (0.515727501, 0.333333333), (0.260458887, 0.333333333), (0.255808823, 0.666666667), (0.506520037, 0.666666667),
            (0.515727501, 0.333333333), (0.750979187, 0.666666667), (0.764630402, 0.333333333), (0.515727501, 0.333333333), (0.506520037, 0.666666667), (0.750979187, 0.666666667),
            (0.764630402, 0.333333333), (0.987279139, 0.666666667), (1.00522579, 0.333333333), (0.764630402, 0.333333333), (0.750979187, 0.666666667), (0.987279139, 0.666666667),
            (1.00522579, 0.333333333), (1.21156119, 0.666666667), (1.23358481, 0.333333333), (1.00522579, 0.333333333), (0.987279139, 0.666666667), (1.21156119, 0.666666667),
            (1.23358481, 0.333333333), (1.40768961, 0.666666667), (1.43327844, 0.333333333), (1.23358481, 0.333333333), (1.21156119, 0.666666667), (1.40768961, 0.666666667),
            (0.222222222, 0.105998181), (0.444444444, 0.0493876532), (0.444444444, 0.39061301), (0.222222222, 0.446918509), (0.222222222, 0.105998181), (0.444444444, 0.39061301),
            (0, 0.666666667), (0.253972369, 1), (0.255808823, 0.666666667), (0, 0.666666667), (0, 1), (0.253972369, 1),
            (0.444444444, 0.0528222192), (0.666666667, 0.394028754), (0.666666667, 0.0528222192), (0.444444444, 0.0528222192), (0.444444444, 0.394028754), (0.666666667, 0.394028754),
            (0.255808823, 0.666666667), (0.502883725, 1), (0.506520037, 0.666666667), (0.255808823, 0.666666667), (0.253972369, 1), (0.502883725, 1),
            (0.506520037, 0.666666667), (0.745587901, 1), (0.750979187, 0.666666667), (0.506520037, 0.666666667), (0.502883725, 1), (0.745587901, 1),
            (0.750979187, 0.666666667), (0.980191454, 1), (0.987279139, 0.666666667), (0.750979187, 0.666666667), (0.745587901, 1), (0.980191454, 1),
            (0.987279139, 0.666666667), (1.20286338, 1), (1.21156119, 0.666666667), (0.987279139, 0.666666667), (0.980191454, 1), (1.20286338, 1),
            (1.21156119, 0.666666667), (1.3975838, 1), (1.40768961, 0.666666667), (1.21156119, 0.666666667), (1.20286338, 1), (1.3975838, 1),
            (0.444444444, 0.0493876532), (0.666666667, 0), (0.666666667, 0.341498099), (0.444444444, 0.39061301), (0.444444444, 0.0493876532), (0.666666667, 0.341498099),
            (0, 1), (0.259260227, 1.33333333), (0.253972369, 1), (0, 1), (0, 1.33333333), (0.259260227, 1.33333333),
            (0.666666667, 0.0528222192), (0.888888889, 0.394028754), (0.888888889, 0.0528222192), (0.666666667, 0.0528222192), (0.666666667, 0.394028754), (0.888888889, 0.394028754),
            (0.253972369, 1), (0.513354067, 1.33333333), (0.502883725, 1), (0.253972369, 1), (0.259260227, 1.33333333), (0.513354067, 1.33333333),
            (0.502883725, 1), (0.76111149, 1.33333333), (0.745587901, 1), (0.502883725, 1), (0.513354067, 1.33333333), (0.76111149, 1.33333333),
            (0.745587901, 1), (1.00059963, 1.33333333), (0.980191454, 1), (0.745587901, 1), (0.76111149, 1.33333333), (1.00059963, 1.33333333),
            (0.980191454, 1), (1.22790772, 1.33333333), (1.20286338, 1), (0.980191454, 1), (1.00059963, 1.33333333), (1.22790772, 1.33333333),
            (1.20286338, 1), (1.42668233, 1.33333333), (1.3975838, 1), (1.20286338, 1), (1.22790772, 1.33333333), (1.42668233, 1.33333333),
            (0.666666667, 0), (0.888888889, 0.0409553206), (0.888888889, 0.382226021), (0.666666667, 0.341498099), (0.666666667, 0), (0.888888889, 0.382226021),
            (0, 1.33333333), (0.259260227, 1.66666667), (0.259260227, 1.33333333), (0, 1.33333333), (0, 1.66666667), (0.259260227, 1.66666667),
            (0.888888889, 0.0528222192), (1.11111111, 0.394028754), (1.11111111, 0.0528222192), (0.888888889, 0.0528222192), (0.888888889, 0.394028754), (1.11111111, 0.394028754),
            (0.259260227, 1.33333333), (0.513354067, 1.66666667), (0.513354067, 1.33333333), (0.259260227, 1.33333333), (0.259260227, 1.66666667), (0.513354067, 1.66666667),
            (0.513354067, 1.33333333), (0.76111149, 1.66666667), (0.76111149, 1.33333333), (0.513354067, 1.33333333), (0.513354067, 1.66666667), (0.76111149, 1.66666667),
            (0.76111149, 1.33333333), (1.00059963, 1.66666667), (1.00059963, 1.33333333), (0.76111149, 1.33333333), (0.76111149, 1.66666667), (1.00059963, 1.66666667),
            (1.00059963, 1.33333333), (1.22790772, 1.66666667), (1.22790772, 1.33333333), (1.00059963, 1.33333333), (1.00059963, 1.66666667), (1.22790772, 1.66666667),
            (1.22790772, 1.33333333), (1.42668233, 1.66666667), (1.42668233, 1.33333333), (1.22790772, 1.33333333), (1.22790772, 1.66666667), (1.42668233, 1.66666667),
            (0.888888889, 0.0409553206), (1.11111111, 0.103366557), (1.11111111, 0.444299791), (0.888888889, 0.382226021), (0.888888889, 0.0409553206), (1.11111111, 0.444299791),
            (0, 1.66666667), (0.253972369, 2), (0.259260227, 1.66666667), (0, 1.66666667), (0, 2), (0.253972369, 2),
            (1.11111111, 0.0528222192), (1.33333333, 0.394028754), (1.33333333, 0.0528222192), (1.11111111, 0.0528222192), (1.11111111, 0.394028754), (1.33333333, 0.394028754),
            (0.259260227, 1.66666667), (0.502883725, 2), (0.513354067, 1.66666667), (0.259260227, 1.66666667), (0.253972369, 2), (0.502883725, 2),
            (0.513354067, 1.66666667), (0.745587901, 2), (0.76111149, 1.66666667), (0.513354067, 1.66666667), (0.502883725, 2), (0.745587901, 2),
            (0.76111149, 1.66666667), (0.980191454, 2), (1.00059963, 1.66666667), (0.76111149, 1.66666667), (0.745587901, 2), (0.980191454, 2),
            (1.00059963, 1.66666667), (1.20286338, 2), (1.22790772, 1.66666667), (1.00059963, 1.66666667), (0.980191454, 2), (1.20286338, 2),
            (1.22790772, 1.66666667), (1.3975838, 2), (1.42668233, 1.66666667), (1.22790772, 1.66666667), (1.20286338, 2), (1.3975838, 2),
            (1.11111111, 0.103366557), (1.33333333, 0.0785400751), (1.33333333, 0.419604654), (1.11111111, 0.444299791), (1.11111111, 0.103366557), (1.33333333, 0.419604654),
            (0, 2), (0.255808823, 2.33333333), (0.253972369, 2), (0, 2), (0, 2.33333333), (0.255808823, 2.33333333),
            (1.33333333, 0.0528222192), (1.55555556, 0.394028754), (1.55555556, 0.0528222192), (1.33333333, 0.0528222192), (1.33333333, 0.394028754), (1.55555556, 0.394028754),
            (0.253972369, 2), (0.506520037, 2.33333333), (0.502883725, 2), (0.253972369, 2), (0.255808823, 2.33333333), (0.506520037, 2.33333333),
            (0.502883725, 2), (0.750979187, 2.33333333), (0.745587901, 2), (0.502883725, 2), (0.506520037, 2.33333333), (0.750979187, 2.33333333),
            (0.745587901, 2), (0.987279139, 2.33333333), (0.980191454, 2), (0.745587901, 2), (0.750979187, 2.33333333), (0.987279139, 2.33333333),
            (0.980191454, 2), (1.21156119, 2.33333333), (1.20286338, 2), (0.980191454, 2), (0.987279139, 2.33333333), (1.21156119, 2.33333333),
            (1.20286338, 2), (1.40768961, 2.33333333), (1.3975838, 2), (1.20286338, 2), (1.21156119, 2.33333333), (1.40768961, 2.33333333),
            (1.33333333, 0.0785400751), (1.55555556, 0.0103237488), (1.55555556, 0.351763179), (1.33333333, 0.419604654), (1.33333333, 0.0785400751), (1.55555556, 0.351763179),
            (0, 2.33333333), (0.260458887, 2.66666667), (0.255808823, 2.33333333), (0, 2.33333333), (0, 2.66666667), (0.260458887, 2.66666667),
            (1.55555556, 0.0528222192), (1.77777778, 0.394028754), (1.77777778, 0.0528222192), (1.55555556, 0.0528222192), (1.55555556, 0.394028754), (1.77777778, 0.394028754),
            (0.255808823, 2.33333333), (0.515727501, 2.66666667), (0.506520037, 2.33333333), (0.255808823, 2.33333333), (0.260458887, 2.66666667), (0.515727501, 2.66666667),
            (0.506520037, 2.33333333), (0.764630402, 2.66666667), (0.750979187, 2.33333333), (0.506520037, 2.33333333), (0.515727501, 2.66666667), (0.764630402, 2.66666667),
            (0.750979187, 2.33333333), (1.00522579, 2.66666667), (0.987279139, 2.33333333), (0.750979187, 2.33333333), (0.764630402, 2.66666667), (1.00522579, 2.66666667),
            (0.987279139, 2.33333333), (1.23358481, 2.66666667), (1.21156119, 2.33333333), (0.987279139, 2.33333333), (1.00522579, 2.66666667), (1.23358481, 2.66666667),
            (1.21156119, 2.33333333), (1.43327844, 2.66666667), (1.40768961, 2.33333333), (1.21156119, 2.33333333), (1.23358481, 2.66666667), (1.43327844, 2.66666667),
            (1.55555556, 0.0103237488), (1.77777778, 0.0141313113), (1.77777778, 0.355546091), (1.55555556, 0.351763179), (1.55555556, 0.0103237488), (1.77777778, 0.355546091),
            (0, 2.66666667), (0.257007483, 3), (0.260458887, 2.66666667), (0, 2.66666667), (0, 3), (0.257007483, 3),
            (1.77777778, 0.0528222192), (2, 0.394028754), (2, 0.0528222192), (1.77777778, 0.0528222192), (1.77777778, 0.394028754), (2, 0.394028754),
            (0.260458887, 2.66666667), (0.508893471, 3), (0.515727501, 2.66666667), (0.260458887, 2.66666667), (0.257007483, 3), (0.508893471, 3),
            (0.515727501, 2.66666667), (0.754498099, 3), (0.764630402, 2.66666667), (0.515727501, 2.66666667), (0.508893471, 3), (0.754498099, 3),
            (0.764630402, 2.66666667), (0.991905298, 3), (1.00522579, 2.66666667), (0.764630402, 2.66666667), (0.754498099, 3), (0.991905298, 3),
            (1.00522579, 2.66666667), (1.21723828, 3), (1.23358481, 2.66666667), (1.00522579, 2.66666667), (0.991905298, 3), (1.21723828, 3),
            (1.23358481, 2.66666667), (1.41428571, 3), (1.43327844, 2.66666667), (1.23358481, 2.66666667), (1.21723828, 3), (1.41428571, 3),
            (1.77777778, 0.0141313113), (2, 0.0846531772), (2, 0.425686088), (1.77777778, 0.355546091), (1.77777778, 0.0141313113), (2, 0.425686088),
            (0.171338322, 0.0586066193), (0, 0.0528222192), (0.170403749, 0.399781603), (0, 0.0528222192), (0, 0.394028754), (0.170403749, 0.399781603),
            (0.339262314, 0.0642757512), (0.171338322, 0.0586066193), (0.337411792, 0.405419812), (0.171338322, 0.0586066193), (0.170403749, 0.399781603), (0.337411792, 0.405419812),
            (0.502998733, 0.0698035102), (0.339262314, 0.0642757512), (0.500255103, 0.41091742), (0.339262314, 0.0642757512), (0.337411792, 0.405419812), (0.500255103, 0.41091742),
            (0.661270198, 0.0751467718), (0.502998733, 0.0698035102), (0.65766327, 0.416231536), (0.502998733, 0.0698035102), (0.500255103, 0.41091742), (0.65766327, 0.416231536),
            (0.811492188, 0.0802182823), (0.661270198, 0.0751467718), (0.807065867, 0.421275384), (0.661270198, 0.0751467718), (0.65766327, 0.416231536), (0.807065867, 0.421275384),
            (0.942857143, 0.0846531772), (0.811492188, 0.0802182823), (0.937714286, 0.425686088), (0.811492188, 0.0802182823), (0.807065867, 0.421275384), (0.937714286, 0.425686088),
            (0, 0.394028754), (0.170403749, 0.397351598), (0.167080824, 1.61046559), (0, 0.394028754), (0.222222222, 1.60720754), (0.222222222, 0.394028754),
            (0, 0.394028754), (0.167080824, 1.61046559), (0, 1.60720754), (0, 0.394028754), (0, 1.60720754), (0.222222222, 1.60720754),
            (0.170403749, 0.397351598), (0.337411792, 0.400608226), (0.330832159, 1.61365871), (0.170403749, 0.397351598), (0.330832159, 1.61365871), (0.167080824, 1.61046559),
            (0.337411792, 0.400608226), (0.500255103, 0.403783643), (0.490499976, 1.61677221), (0.337411792, 0.400608226), (0.490499976, 1.61677221), (0.330832159, 1.61365871),
            (0.500255103, 0.403783643), (0.65766327, 0.406853075), (0.644838636, 1.61978179), (0.500255103, 0.403783643), (0.644838636, 1.61978179), (0.490499976, 1.61677221),
            (0.65766327, 0.406853075), (0.807065867, 0.4097664), (0.791327837, 1.6226383), (0.65766327, 0.406853075), (0.791327837, 1.6226383), (0.644838636, 1.61978179),
            (0.807065867, 0.4097664), (0.937714286, 0.412314022), (0.919428571, 1.62513624), (0.807065867, 0.4097664), (0.919428571, 1.62513624), (0.791327837, 1.6226383),
            (0, 0.412314022), (0.222222222, 0.446918509), (0.222222222, 1.65907967), (0, 1.62513624), (0, 0.412314022), (0.222222222, 1.65907967),
            (0.222222222, 0.394028754), (0.444444444, 1.60720754), (0.444444444, 0.394028754), (0.222222222, 0.394028754), (0.222222222, 1.60720754), (0.444444444, 1.60720754),
            (0.222222222, 0.446918509), (0.444444444, 0.39061301), (0.444444444, 1.60385872), (0.222222222, 1.65907967), (0.222222222, 0.446918509), (0.444444444, 1.60385872),
            (0.444444444, 0.394028754), (0.666666667, 1.60720754), (0.666666667, 0.394028754), (0.444444444, 0.394028754), (0.444444444, 1.60720754), (0.666666667, 1.60720754),
            (0.444444444, 0.39061301), (0.666666667, 0.341498099), (0.666666667, 1.55571356), (0.444444444, 1.60385872), (0.444444444, 0.39061301), (0.666666667, 1.55571356),
            (0.666666667, 0.394028754), (0.888888889, 1.60720754), (0.888888889, 0.394028754), (0.666666667, 0.394028754), (0.666666667, 1.60720754), (0.888888889, 1.60720754),
            (0.666666667, 0.341498099), (0.888888889, 0.382226021), (0.888888889, 1.59563296), (0.666666667, 1.55571356), (0.666666667, 0.341498099), (0.888888889, 1.59563296),
            (0.888888889, 0.394028754), (1.11111111, 1.60720754), (1.11111111, 0.394028754), (0.888888889, 0.394028754), (0.888888889, 1.60720754), (1.11111111, 1.60720754),
            (0.888888889, 0.382226021), (1.11111111, 0.444299791), (1.11111111, 1.65650684), (0.888888889, 1.59563296), (0.888888889, 0.382226021), (1.11111111, 1.65650684),
            (1.11111111, 0.394028754), (1.33333333, 1.60720754), (1.33333333, 0.394028754), (1.11111111, 0.394028754), (1.11111111, 1.60720754), (1.33333333, 1.60720754),
            (1.11111111, 0.444299791), (1.33333333, 0.419604654), (1.33333333, 1.63227871), (1.11111111, 1.65650684), (1.11111111, 0.444299791), (1.33333333, 1.63227871),
            (1.33333333, 0.394028754), (1.55555556, 1.60720754), (1.55555556, 0.394028754), (1.33333333, 0.394028754), (1.33333333, 1.60720754), (1.55555556, 1.60720754),
            (1.33333333, 0.419604654), (1.55555556, 0.351763179), (1.55555556, 1.56577004), (1.33333333, 1.63227871), (1.33333333, 0.419604654), (1.55555556, 1.56577004),
            (1.55555556, 0.394028754), (1.77777778, 1.60720754), (1.77777778, 0.394028754), (1.55555556, 0.394028754), (1.55555556, 1.60720754), (1.77777778, 1.60720754),
            (1.55555556, 0.351763179), (1.77777778, 0.355546091), (1.77777778, 1.56946531), (1.55555556, 1.56577004), (1.55555556, 0.351763179), (1.77777778, 1.56946531),
            (1.77777778, 0.394028754), (2, 1.60720754), (2, 0.394028754), (1.77777778, 0.394028754), (1.77777778, 1.60720754), (2, 1.60720754),
            (1.77777778, 0.355546091), (2, 0.425686088), (2, 1.63824755), (1.77777778, 1.56946531), (1.77777778, 0.355546091), (2, 1.63824755),
            (0.170403749, 0.399781603), (0, 0.394028754), (0.167080824, 1.61284821), (0, 0.394028754), (0, 1.60720754), (0.167080824, 1.61284821),
            (0.337411792, 0.405419812), (0.170403749, 0.399781603), (0.330832159, 1.61837647), (0.170403749, 0.399781603), (0.167080824, 1.61284821), (0.330832159, 1.61837647),
            (0.500255103, 0.41091742), (0.337411792, 0.405419812), (0.490499976, 1.62376687), (0.337411792, 0.405419812), (0.330832159, 1.61837647), (0.490499976, 1.62376687),
            (0.65766327, 0.416231536), (0.500255103, 0.41091742), (0.644838636, 1.62897736), (0.500255103, 0.41091742), (0.490499976, 1.62376687), (0.644838636, 1.62897736),
            (0.807065867, 0.421275384), (0.65766327, 0.416231536), (0.791327837, 1.63392286), (0.65766327, 0.416231536), (0.644838636, 1.62897736), (0.791327837, 1.63392286),
            (0.937714286, 0.425686088), (0.807065867, 0.421275384), (0.919428571, 1.63824755), (0.807065867, 0.421275384), (0.791327837, 1.63392286), (0.919428571, 1.63824755),
            (0, 1.60720754), (0.167080824, 1.61046559), (0.166146252, 1.9516539), (0, 1.60720754), (0.222222222, 1.94841408), (0.222222222, 1.60720754),
            (0, 1.60720754), (0.166146252, 1.9516539), (0, 1.94841408), (0, 1.60720754), (0, 1.94841408), (0.222222222, 1.94841408),
            (0.167080824, 1.61046559), (0.330832159, 1.61365871), (0.328981638, 1.95482916), (0.167080824, 1.61046559), (0.328981638, 1.95482916), (0.166146252, 1.9516539),
            (0.330832159, 1.61365871), (0.490499976, 1.61677221), (0.487756347, 1.95792524), (0.330832159, 1.61365871), (0.487756347, 1.95792524), (0.328981638, 1.95482916),
            (0.490499976, 1.61677221), (0.644838636, 1.61978179), (0.641231707, 1.96091799), (0.490499976, 1.61677221), (0.641231707, 1.96091799), (0.487756347, 1.95792524),
            (0.644838636, 1.61978179), (0.791327837, 1.6226383), (0.786901516, 1.96375852), (0.644838636, 1.61978179), (0.786901516, 1.96375852), (0.641231707, 1.96091799),
            (0.791327837, 1.6226383), (0.919428571, 1.62513624), (0.914285714, 1.96624249), (0.791327837, 1.6226383), (0.914285714, 1.96624249), (0.786901516, 1.96375852),
            (0, 1.62513624), (0.222222222, 1.65907967), (0.222222222, 2), (0, 1.96624249), (0, 1.62513624), (0.222222222, 2),
            (0.222222222, 1.60720754), (0.444444444, 1.94841408), (0.444444444, 1.60720754), (0.222222222, 1.60720754), (0.222222222, 1.94841408), (0.444444444, 1.94841408),
            (0.222222222, 1.65907967), (0.444444444, 1.60385872), (0.444444444, 1.94508408), (0.222222222, 2), (0.222222222, 1.65907967), (0.444444444, 1.94508408),
            (0.444444444, 1.60720754), (0.666666667, 1.94841408), (0.666666667, 1.60720754), (0.444444444, 1.60720754), (0.444444444, 1.94841408), (0.666666667, 1.94841408),
            (0.444444444, 1.60385872), (0.666666667, 1.55571356), (0.666666667, 1.89721166), (0.444444444, 1.94508408), (0.444444444, 1.60385872), (0.666666667, 1.89721166),
            (0.666666667, 1.60720754), (0.888888889, 1.94841408), (0.888888889, 1.60720754), (0.666666667, 1.60720754), (0.666666667, 1.94841408), (0.888888889, 1.94841408),
            (0.666666667, 1.55571356), (0.888888889, 1.59563296), (0.888888889, 1.93690366), (0.666666667, 1.89721166), (0.666666667, 1.55571356), (0.888888889, 1.93690366),
            (0.888888889, 1.60720754), (1.11111111, 1.94841408), (1.11111111, 1.60720754), (0.888888889, 1.60720754), (0.888888889, 1.94841408), (1.11111111, 1.94841408),
            (0.888888889, 1.59563296), (1.11111111, 1.65650684), (1.11111111, 1.99744008), (0.888888889, 1.93690366), (0.888888889, 1.59563296), (1.11111111, 1.99744008),
            (1.11111111, 1.60720754), (1.33333333, 1.94841408), (1.33333333, 1.60720754), (1.11111111, 1.60720754), (1.11111111, 1.94841408), (1.33333333, 1.94841408),
            (1.11111111, 1.65650684), (1.33333333, 1.63227871), (1.33333333, 1.97334329), (1.11111111, 1.99744008), (1.11111111, 1.65650684), (1.33333333, 1.97334329),
            (1.33333333, 1.60720754), (1.55555556, 1.94841408), (1.55555556, 1.60720754), (1.33333333, 1.60720754), (1.33333333, 1.94841408), (1.55555556, 1.94841408),
            (1.33333333, 1.63227871), (1.55555556, 1.56577004), (1.55555556, 1.90720947), (1.33333333, 1.97334329), (1.33333333, 1.63227871), (1.55555556, 1.90720947),
            (1.55555556, 1.60720754), (1.77777778, 1.94841408), (1.77777778, 1.60720754), (1.55555556, 1.60720754), (1.55555556, 1.94841408), (1.77777778, 1.94841408),
            (1.55555556, 1.56577004), (1.77777778, 1.56946531), (1.77777778, 1.91088009), (1.55555556, 1.90720947), (1.55555556, 1.56577004), (1.77777778, 1.91088009),
            (1.77777778, 1.60720754), (2, 1.94841408), (2, 1.60720754), (1.77777778, 1.60720754), (1.77777778, 1.94841408), (2, 1.94841408),
            (1.77777778, 1.56946531), (2, 1.63824755), (2, 1.97928046), (1.77777778, 1.91088009), (1.77777778, 1.56946531), (2, 1.97928046),
            (0.167080824, 1.61284821), (0, 1.60720754), (0.166146252, 1.95402319), (0, 1.60720754), (0, 1.94841408), (0.166146252, 1.95402319),
            (0.330832159, 1.61837647), (0.167080824, 1.61284821), (0.328981638, 1.95952053), (0.167080824, 1.61284821), (0.166146252, 1.95402319), (0.328981638, 1.95952053),
            (0.490499976, 1.62376687), (0.330832159, 1.61837647), (0.487756347, 1.96488078), (0.330832159, 1.61837647), (0.328981638, 1.95952053), (0.487756347, 1.96488078),
            (0.644838636, 1.62897736), (0.490499976, 1.62376687), (0.641231707, 1.97006213), (0.490499976, 1.62376687), (0.487756347, 1.96488078), (0.641231707, 1.97006213),
            (0.791327837, 1.63392286), (0.644838636, 1.62897736), (0.786901516, 1.97497996), (0.644838636, 1.62897736), (0.641231707, 1.97006213), (0.786901516, 1.97497996),
            (0.919428571, 1.63824755), (0.791327837, 1.63392286), (0.914285714, 1.97928046), (0.791327837, 1.63392286), (0.786901516, 1.97497996), (0.914285714, 1.97928046),
            (0, 0), (0.249219378, 0), (0.252670782, 0.333333333), (0, 0.333333333), (0, 0), (0.252670782, 0.333333333),
            (0.249219378, 0), (0.493472456, 0), (0.500306487, 0.333333333), (0.252670782, 0.333333333), (0.249219378, 0), (0.500306487, 0.333333333),
            (0.493472456, 0), (0.73163452, 0), (0.741766823, 0.333333333), (0.500306487, 0.333333333), (0.493472456, 0), (0.741766823, 0.333333333),
            (0.73163452, 0), (0.961847561, 0), (0.975168052, 0.333333333), (0.741766823, 0.333333333), (0.73163452, 0), (0.975168052, 0.333333333),
            (0.961847561, 0), (1.18035227, 0), (1.19669881, 0.333333333), (0.975168052, 0.333333333), (0.961847561, 0), (1.19669881, 0.333333333),
            (1.18035227, 0), (1.37142857, 0), (1.39042129, 0.333333333), (1.19669881, 0.333333333), (1.18035227, 0), (1.39042129, 0.333333333),
            (0, 0.333333333), (0.252670782, 0.333333333), (0.248020718, 0.666666667), (0, 0.666666667), (0, 0.333333333), (0.248020718, 0.666666667),
            (0.252670782, 0.333333333), (0.500306487, 0.333333333), (0.491099023, 0.666666667), (0.248020718, 0.666666667), (0.252670782, 0.333333333), (0.491099023, 0.666666667),
            (0.500306487, 0.333333333), (0.741766823, 0.333333333), (0.728115608, 0.666666667), (0.491099023, 0.666666667), (0.500306487, 0.333333333), (0.728115608, 0.666666667),
            (0.741766823, 0.333333333), (0.975168052, 0.333333333), (0.957221403, 0.666666667), (0.728115608, 0.666666667), (0.741766823, 0.333333333), (0.957221403, 0.666666667),
            (0.975168052, 0.333333333), (1.19669881, 0.333333333), (1.17467518, 0.666666667), (0.957221403, 0.666666667), (0.975168052, 0.333333333), (1.17467518, 0.666666667),
            (1.19669881, 0.333333333), (1.39042129, 0.333333333), (1.36483247, 0.666666667), (1.17467518, 0.666666667), (1.19669881, 0.333333333), (1.36483247, 0.666666667),
            (0, 0.666666667), (0.248020718, 0.666666667), (0.246184264, 1), (0, 1), (0, 0.666666667), (0.246184264, 1),
            (0.248020718, 0.666666667), (0.491099023, 0.666666667), (0.487462711, 1), (0.246184264, 1), (0.248020718, 0.666666667), (0.487462711, 1),
            (0.491099023, 0.666666667), (0.728115608, 0.666666667), (0.722724322, 1), (0.487462711, 1), (0.491099023, 0.666666667), (0.722724322, 1),
            (0.728115608, 0.666666667), (0.957221403, 0.666666667), (0.950133718, 1), (0.722724322, 1), (0.728115608, 0.666666667), (0.950133718, 1),
            (0.957221403, 0.666666667), (1.17467518, 0.666666667), (1.16597737, 1), (0.950133718, 1), (0.957221403, 0.666666667), (1.16597737, 1),
            (1.17467518, 0.666666667), (1.36483247, 0.666666667), (1.35472665, 1), (1.16597737, 1), (1.17467518, 0.666666667), (1.35472665, 1),
            (0, 1), (0.246184264, 1), (0.251472122, 1.33333333), (0, 1.33333333), (0, 1), (0.251472122, 1.33333333),
            (0.246184264, 1), (0.487462711, 1), (0.497933053, 1.33333333), (0.251472122, 1.33333333), (0.246184264, 1), (0.497933053, 1.33333333),
            (0.487462711, 1), (0.722724322, 1), (0.738247911, 1.33333333), (0.497933053, 1.33333333), (0.487462711, 1), (0.738247911, 1.33333333),
            (0.722724322, 1), (0.950133718, 1), (0.970541894, 1.33333333), (0.738247911, 1.33333333), (0.722724322, 1), (0.970541894, 1.33333333),
            (0.950133718, 1), (1.16597737, 1), (1.19102171, 1.33333333), (0.970541894, 1.33333333), (0.950133718, 1), (1.19102171, 1.33333333),
            (1.16597737, 1), (1.35472665, 1), (1.38382519, 1.33333333), (1.19102171, 1.33333333), (1.16597737, 1), (1.38382519, 1.33333333),
            (0, 1.33333333), (0.251472122, 1.33333333), (0.251472122, 1.66666667), (0, 1.66666667), (0, 1.33333333), (0.251472122, 1.66666667),
            (0.251472122, 1.33333333), (0.497933053, 1.33333333), (0.497933053, 1.66666667), (0.251472122, 1.66666667), (0.251472122, 1.33333333), (0.497933053, 1.66666667),
            (0.497933053, 1.33333333), (0.738247911, 1.33333333), (0.738247911, 1.66666667), (0.497933053, 1.66666667), (0.497933053, 1.33333333), (0.738247911, 1.66666667),
            (0.738247911, 1.33333333), (0.970541894, 1.33333333), (0.970541894, 1.66666667), (0.738247911, 1.66666667), (0.738247911, 1.33333333), (0.970541894, 1.66666667),
            (0.970541894, 1.33333333), (1.19102171, 1.33333333), (1.19102171, 1.66666667), (0.970541894, 1.66666667), (0.970541894, 1.33333333), (1.19102171, 1.66666667),
            (1.19102171, 1.33333333), (1.38382519, 1.33333333), (1.38382519, 1.66666667), (1.19102171, 1.66666667), (1.19102171, 1.33333333), (1.38382519, 1.66666667),
            (0, 1.66666667), (0.251472122, 1.66666667), (0.246184264, 2), (0, 2), (0, 1.66666667), (0.246184264, 2),
            (0.251472122, 1.66666667), (0.497933053, 1.66666667), (0.487462711, 2), (0.246184264, 2), (0.251472122, 1.66666667), (0.487462711, 2),
            (0.497933053, 1.66666667), (0.738247911, 1.66666667), (0.722724322, 2), (0.487462711, 2), (0.497933053, 1.66666667), (0.722724322, 2),
            (0.738247911, 1.66666667), (0.970541894, 1.66666667), (0.950133718, 2), (0.722724322, 2), (0.738247911, 1.66666667), (0.950133718, 2),
            (0.970541894, 1.66666667), (1.19102171, 1.66666667), (1.16597737, 2), (0.950133718, 2), (0.970541894, 1.66666667), (1.16597737, 2),
            (1.19102171, 1.66666667), (1.38382519, 1.66666667), (1.35472665, 2), (1.16597737, 2), (1.19102171, 1.66666667), (1.35472665, 2),
            (0, 2), (0.246184264, 2), (0.248020718, 2.33333333), (0, 2.33333333), (0, 2), (0.248020718, 2.33333333),
            (0.246184264, 2), (0.487462711, 2), (0.491099023, 2.33333333), (0.248020718, 2.33333333), (0.246184264, 2), (0.491099023, 2.33333333),
            (0.487462711, 2), (0.722724322, 2), (0.728115608, 2.33333333), (0.491099023, 2.33333333), (0.487462711, 2), (0.728115608, 2.33333333),
            (0.722724322, 2), (0.950133718, 2), (0.957221403, 2.33333333), (0.728115608, 2.33333333), (0.722724322, 2), (0.957221403, 2.33333333),
            (0.950133718, 2), (1.16597737, 2), (1.17467518, 2.33333333), (0.957221403, 2.33333333), (0.950133718, 2), (1.17467518, 2.33333333),
            (1.16597737, 2), (1.35472665, 2), (1.36483247, 2.33333333), (1.17467518, 2.33333333), (1.16597737, 2), (1.36483247, 2.33333333),
            (0, 2.33333333), (0.248020718, 2.33333333), (0.252670782, 2.66666667), (0, 2.66666667), (0, 2.33333333), (0.252670782, 2.66666667),
            (0.248020718, 2.33333333), (0.491099023, 2.33333333), (0.500306487, 2.66666667), (0.252670782, 2.66666667), (0.248020718, 2.33333333), (0.500306487, 2.66666667),
            (0.491099023, 2.33333333), (0.728115608, 2.33333333), (0.741766823, 2.66666667), (0.500306487, 2.66666667), (0.491099023, 2.33333333), (0.741766823, 2.66666667),
            (0.728115608, 2.33333333), (0.957221403, 2.33333333), (0.975168052, 2.66666667), (0.741766823, 2.66666667), (0.728115608, 2.33333333), (0.975168052, 2.66666667),
            (0.957221403, 2.33333333), (1.17467518, 2.33333333), (1.19669881, 2.66666667), (0.975168052, 2.66666667), (0.957221403, 2.33333333), (1.19669881, 2.66666667),
            (1.17467518, 2.33333333), (1.36483247, 2.33333333), (1.39042129, 2.66666667), (1.19669881, 2.66666667), (1.17467518, 2.33333333), (1.39042129, 2.66666667),
            (0, 2.66666667), (0.252670782, 2.66666667), (0.249219378, 3), (0, 3), (0, 2.66666667), (0.249219378, 3),
            (0.252670782, 2.66666667), (0.500306487, 2.66666667), (0.493472456, 3), (0.249219378, 3), (0.252670782, 2.66666667), (0.493472456, 3),
            (0.500306487, 2.66666667), (0.741766823, 2.66666667), (0.73163452, 3), (0.493472456, 3), (0.500306487, 2.66666667), (0.73163452, 3),
            (0.741766823, 2.66666667), (0.975168052, 2.66666667), (0.961847561, 3), (0.73163452, 3), (0.741766823, 2.66666667), (0.961847561, 3),
            (0.975168052, 2.66666667), (1.19669881, 2.66666667), (1.18035227, 3), (0.961847561, 3), (0.975168052, 2.66666667), (1.18035227, 3),
            (1.19669881, 2.66666667), (1.39042129, 2.66666667), (1.37142857, 3), (1.18035227, 3), (1.19669881, 2.66666667), (1.37142857, 3),
            (1.58571429, 0), (1.79910825, 0.333333333), (1.78276172, 0), (1.05714286, 0.0344366664), (1.18850781, 0.0369982605), (1.19293413, 0.378291108),
            (1.58571429, 0), (1.60470701, 0.333333333), (1.79910825, 0.333333333), (0, 0.0344366664), (0.222222222, 0.44037496), (0.222222222, 0.0994260882),
            (1.05714286, 0.0344366664), (1.19293413, 0.378291108), (1.06228571, 0.375743486), (0, 0.0344366664), (0, 0.375743486), (0.222222222, 0.44037496),
            (1.78276172, 0), (2.02141519, 0.333333333), (2.0080947, 0), (1.18850781, 0.0369982605), (1.3387298, 0.0399275636), (1.34233673, 0.381204433),
            (1.78276172, 0), (1.79910825, 0.333333333), (2.02141519, 0.333333333), (1.18850781, 0.0369982605), (1.34233673, 0.381204433), (1.19293413, 0.378291108),
            (2.0080947, 0), (2.2556342, 0.333333333), (2.2455019, 0), (1.3387298, 0.0399275636), (1.49700127, 0.04301383), (1.4997449, 0.384273865),
            (2.0080947, 0), (2.02141519, 0.333333333), (2.2556342, 0.333333333), (1.3387298, 0.0399275636), (1.4997449, 0.384273865), (1.34233673, 0.381204433),
            (2.2455019, 0), (2.49794056, 0.333333333), (2.49110653, 0), (1.49700127, 0.04301383), (1.66073769, 0.0462066622), (1.66258821, 0.387449282),
            (2.2455019, 0), (2.2556342, 0.333333333), (2.49794056, 0.333333333), (1.49700127, 0.04301383), (1.66258821, 0.387449282), (1.4997449, 0.384273865),
            (2.49110653, 0), (2.74644392, 0.333333333), (2.74299252, 0), (1.66073769, 0.0462066622), (1.82866168, 0.0494811513), (1.82959625, 0.39070591),
            (2.49110653, 0), (2.49794056, 0.333333333), (2.74644392, 0.333333333), (1.66073769, 0.0462066622), (1.82959625, 0.39070591), (1.66258821, 0.387449282),
            (2.74299252, 0), (3, 0.333333333), (3, 0), (1.82866168, 0.0494811513), (2, 0.0528222192), (2, 0.394028754),
            (2.74299252, 0), (2.74644392, 0.333333333), (3, 0.333333333), (1.82866168, 0.0494811513), (2, 0.394028754), (1.82959625, 0.39070591),
            (0, 0.0528222192), (0.222222222, 0.0528222192), (0.222222222, 0.394028754), (0, 0.394028754), (0, 0.0528222192), (0.222222222, 0.394028754),
            (1.60470701, 0.333333333), (1.77708463, 0.666666667), (1.79910825, 0.333333333), (1.60470701, 0.333333333), (1.57911818, 0.666666667), (1.77708463, 0.666666667),
            (0.222222222, 0.0994260882), (0.444444444, 0.425834545), (0.444444444, 0.0848016339), (0.222222222, 0.0994260882), (0.222222222, 0.44037496), (0.444444444, 0.425834545),
            (1.79910825, 0.333333333), (2.00346854, 0.666666667), (2.02141519, 0.333333333), (1.79910825, 0.333333333), (1.77708463, 0.666666667), (2.00346854, 0.666666667),
            (2.02141519, 0.333333333), (2.24198299, 0.666666667), (2.2556342, 0.333333333), (2.02141519, 0.333333333), (2.00346854, 0.666666667), (2.24198299, 0.666666667),
            (2.2556342, 0.333333333), (2.4887331, 0.666666667), (2.49794056, 0.333333333), (2.2556342, 0.333333333), (2.24198299, 0.666666667), (2.4887331, 0.666666667),
            (2.49794056, 0.333333333), (2.74179386, 0.666666667), (2.74644392, 0.333333333), (2.49794056, 0.333333333), (2.4887331, 0.666666667), (2.74179386, 0.666666667),
            (2.74644392, 0.333333333), (3, 0.666666667), (3, 0.333333333), (2.74644392, 0.333333333), (2.74179386, 0.666666667), (3, 0.666666667),
            (0.222222222, 0.0528222192), (0.444444444, 0.0528222192), (0.444444444, 0.394028754), (0.222222222, 0.394028754), (0.222222222, 0.0528222192), (0.444444444, 0.394028754),
            (1.57911818, 0.666666667), (1.76838682, 1), (1.77708463, 0.666666667), (1.57911818, 0.666666667), (1.56901237, 1), (1.76838682, 1),
            (0.444444444, 0.0848016339), (0.666666667, 0.35560793), (0.666666667, 0.0141931508), (0.444444444, 0.0848016339), (0.444444444, 0.425834545), (0.666666667, 0.35560793),
            (1.77708463, 0.666666667), (1.99638086, 1), (2.00346854, 0.666666667), (1.77708463, 0.666666667), (1.76838682, 1), (1.99638086, 1),
            (2.00346854, 0.666666667), (2.2365917, 1), (2.24198299, 0.666666667), (2.00346854, 0.666666667), (1.99638086, 1), (2.2365917, 1),
            (2.24198299, 0.666666667), (2.48509678, 1), (2.4887331, 0.666666667), (2.24198299, 0.666666667), (2.2365917, 1), (2.48509678, 1),
            (2.4887331, 0.666666667), (2.7399574, 1), (2.74179386, 0.666666667), (2.4887331, 0.666666667), (2.48509678, 1), (2.7399574, 1),
            (2.74179386, 0.666666667), (3, 1), (3, 0.666666667), (2.74179386, 0.666666667), (2.7399574, 1), (3, 1),
            (0.444444444, 0.0528222192), (0.666666667, 0.0528222192), (0.666666667, 0.394028754), (0.444444444, 0.394028754), (0.444444444, 0.0528222192), (0.666666667, 0.394028754),
            (1.56901237, 1), (1.79343116, 1.33333333), (1.76838682, 1), (1.56901237, 1), (1.5981109, 1.33333333), (1.79343116, 1.33333333),
            (0.666666667, 0.0141931508), (0.888888889, 0.351938298), (0.888888889, 0.0104988677), (0.666666667, 0.0141931508), (0.666666667, 0.35560793), (0.888888889, 0.351938298),
            (1.76838682, 1), (2.01678904, 1.33333333), (1.99638086, 1), (1.76838682, 1), (1.79343116, 1.33333333), (2.01678904, 1.33333333),
            (1.99638086, 1), (2.25211529, 1.33333333), (2.2365917, 1), (1.99638086, 1), (2.01678904, 1.33333333), (2.25211529, 1.33333333),
            (2.2365917, 1), (2.49556713, 1.33333333), (2.48509678, 1), (2.2365917, 1), (2.25211529, 1.33333333), (2.49556713, 1.33333333),
            (2.48509678, 1), (2.74524526, 1.33333333), (2.7399574, 1), (2.48509678, 1), (2.49556713, 1.33333333), (2.74524526, 1.33333333),
            (2.7399574, 1), (3, 1.33333333), (3, 1), (2.7399574, 1), (2.74524526, 1.33333333), (3, 1.33333333),
            (0.666666667, 0.0528222192), (0.888888889, 0.0528222192), (0.888888889, 0.394028754), (0.666666667, 0.394028754), (0.666666667, 0.0528222192), (0.888888889, 0.394028754),
            (1.5981109, 1.33333333), (1.79343116, 1.66666667), (1.79343116, 1.33333333), (1.5981109, 1.33333333), (1.5981109, 1.66666667), (1.79343116, 1.66666667),
            (0.888888889, 0.0104988677), (1.11111111, 0.419683879), (1.11111111, 0.0786192998), (0.888888889, 0.0104988677), (0.888888889, 0.351938298), (1.11111111, 0.419683879),
            (1.79343116, 1.33333333), (2.01678904, 1.66666667), (2.01678904, 1.33333333), (1.79343116, 1.33333333), (1.79343116, 1.66666667), (2.01678904, 1.66666667),
            (2.01678904, 1.33333333), (2.25211529, 1.66666667), (2.25211529, 1.33333333), (2.01678904, 1.33333333), (2.01678904, 1.66666667), (2.25211529, 1.66666667),
            (2.25211529, 1.33333333), (2.49556713, 1.66666667), (2.49556713, 1.33333333), (2.25211529, 1.33333333), (2.25211529, 1.66666667), (2.49556713, 1.66666667),
            (2.49556713, 1.33333333), (2.74524526, 1.66666667), (2.74524526, 1.33333333), (2.49556713, 1.33333333), (2.49556713, 1.66666667), (2.74524526, 1.66666667),
            (2.74524526, 1.33333333), (3, 1.66666667), (3, 1.33333333), (2.74524526, 1.33333333), (2.74524526, 1.66666667), (3, 1.66666667),
            (0.888888889, 0.0528222192), (1.11111111, 0.0528222192), (1.11111111, 0.394028754), (0.888888889, 0.394028754), (0.888888889, 0.0528222192), (1.11111111, 0.394028754),
            (1.5981109, 1.66666667), (1.76838682, 2), (1.79343116, 1.66666667), (1.5981109, 1.66666667), (1.56901237, 2), (1.76838682, 2),
            (1.11111111, 0.0786192998), (1.33333333, 0.444452319), (1.33333333, 0.103519085), (1.11111111, 0.0786192998), (1.11111111, 0.419683879), (1.33333333, 0.444452319),
            (1.79343116, 1.66666667), (1.99638086, 2), (2.01678904, 1.66666667), (1.79343116, 1.66666667), (1.76838682, 2), (1.99638086, 2),
            (2.01678904, 1.66666667), (2.2365917, 2), (2.25211529, 1.66666667), (2.01678904, 1.66666667), (1.99638086, 2), (2.2365917, 2),
            (2.25211529, 1.66666667), (2.48509678, 2), (2.49556713, 1.66666667), (2.25211529, 1.66666667), (2.2365917, 2), (2.48509678, 2),
            (2.49556713, 1.66666667), (2.7399574, 2), (2.74524526, 1.66666667), (2.49556713, 1.66666667), (2.48509678, 2), (2.7399574, 2),
            (2.74524526, 1.66666667), (3, 2), (3, 1.66666667), (2.74524526, 1.66666667), (2.7399574, 2), (3, 2),
            (1.11111111, 0.0528222192), (1.33333333, 0.0528222192), (1.33333333, 0.394028754), (1.11111111, 0.394028754), (1.11111111, 0.0528222192), (1.33333333, 0.394028754),
            (1.56901237, 2), (1.77708463, 2.33333333), (1.76838682, 2), (1.56901237, 2), (1.57911818, 2.33333333), (1.77708463, 2.33333333),
            (1.33333333, 0.103519085), (1.55555556, 0.382274269), (1.55555556, 0.0410035683), (1.33333333, 0.103519085), (1.33333333, 0.444452319), (1.55555556, 0.382274269),
            (1.76838682, 2), (2.00346854, 2.33333333), (1.99638086, 2), (1.76838682, 2), (1.77708463, 2.33333333), (2.00346854, 2.33333333),
            (1.99638086, 2), (2.24198299, 2.33333333), (2.2365917, 2), (1.99638086, 2), (2.00346854, 2.33333333), (2.24198299, 2.33333333),
            (2.2365917, 2), (2.4887331, 2.33333333), (2.48509678, 2), (2.2365917, 2), (2.24198299, 2.33333333), (2.4887331, 2.33333333),
            (2.48509678, 2), (2.74179386, 2.33333333), (2.7399574, 2), (2.48509678, 2), (2.4887331, 2.33333333), (2.74179386, 2.33333333),
            (2.7399574, 2), (3, 2.33333333), (3, 2), (2.7399574, 2), (2.74179386, 2.33333333), (3, 2.33333333),
            (1.33333333, 0.0528222192), (1.55555556, 0.0528222192), (1.55555556, 0.394028754), (1.33333333, 0.394028754), (1.33333333, 0.0528222192), (1.55555556, 0.394028754),
            (1.57911818, 2.33333333), (1.79910825, 2.66666667), (1.77708463, 2.33333333), (1.57911818, 2.33333333), (1.60470701, 2.66666667), (1.79910825, 2.66666667),
            (1.55555556, 0.0410035683), (1.77777778, 0.341584681), (1.77777778, 8.65817631e-05), (1.55555556, 0.0410035683), (1.55555556, 0.382274269), (1.77777778, 0.341584681),
            (1.77708463, 2.33333333), (2.02141519, 2.66666667), (2.00346854, 2.33333333), (1.77708463, 2.33333333), (1.79910825, 2.66666667), (2.02141519, 2.66666667),
            (2.00346854, 2.33333333), (2.2556342, 2.66666667), (2.24198299, 2.33333333), (2.00346854, 2.33333333), (2.02141519, 2.66666667), (2.2556342, 2.66666667),
            (2.24198299, 2.33333333), (2.49794056, 2.66666667), (2.4887331, 2.33333333), (2.24198299, 2.33333333), (2.2556342, 2.66666667), (2.49794056, 2.66666667),
            (2.4887331, 2.33333333), (2.74644392, 2.66666667), (2.74179386, 2.33333333), (2.4887331, 2.33333333), (2.49794056, 2.66666667), (2.74644392, 2.66666667),
            (2.74179386, 2.33333333), (3, 2.66666667), (3, 2.33333333), (2.74179386, 2.33333333), (2.74644392, 2.66666667), (3, 2.66666667),
            (1.55555556, 0.0528222192), (1.77777778, 0.0528222192), (1.77777778, 0.394028754), (1.55555556, 0.394028754), (1.55555556, 0.0528222192), (1.77777778, 0.394028754),
            (1.60470701, 2.66666667), (1.78276172, 3), (1.79910825, 2.66666667), (1.60470701, 2.66666667), (1.58571429, 3), (1.78276172, 3),
            (1.77777778, 8.65817631e-05), (2, 0.390596916), (2, 0.0493715597), (1.77777778, 8.65817631e-05), (1.77777778, 0.341584681), (2, 0.390596916),
            (1.79910825, 2.66666667), (2.0080947, 3), (2.02141519, 2.66666667), (1.79910825, 2.66666667), (1.78276172, 3), (2.0080947, 3),
            (2.02141519, 2.66666667), (2.2455019, 3), (2.2556342, 2.66666667), (2.02141519, 2.66666667), (2.0080947, 3), (2.2455019, 3),
            (2.2556342, 2.66666667), (2.49110653, 3), (2.49794056, 2.66666667), (2.2556342, 2.66666667), (2.2455019, 3), (2.49110653, 3),
            (2.49794056, 2.66666667), (2.74299252, 3), (2.74644392, 2.66666667), (2.49794056, 2.66666667), (2.49110653, 3), (2.74299252, 3),
            (2.74644392, 2.66666667), (3, 3), (3, 2.66666667), (2.74644392, 2.66666667), (2.74299252, 3), (3, 3),
            (1.77777778, 0.0528222192), (2, 0.0528222192), (2, 0.394028754), (1.77777778, 0.394028754), (1.77777778, 0.0528222192), (2, 0.394028754),
            (1.18850781, 0.0498523279), (1.05714286, 0.0493715597), (1.19293413, 0.391075062), (1.05714286, 0.0493715597), (1.06228571, 0.390596916), (1.19293413, 0.391075062),
            (1.3387298, 0.0504021089), (1.18850781, 0.0498523279), (1.34233673, 0.391621844), (1.18850781, 0.0498523279), (1.19293413, 0.391075062), (1.34233673, 0.391621844),
            (1.49700127, 0.0509813493), (1.3387298, 0.0504021089), (1.4997449, 0.392197925), (1.3387298, 0.0504021089), (1.34233673, 0.391621844), (1.4997449, 0.392197925),
            (1.66073769, 0.0515805902), (1.49700127, 0.0509813493), (1.66258821, 0.392793897), (1.49700127, 0.0509813493), (1.4997449, 0.392197925), (1.66258821, 0.392793897),
            (1.82866168, 0.0521951568), (1.66073769, 0.0515805902), (1.82959625, 0.393405112), (1.66073769, 0.0515805902), (1.66258821, 0.392793897), (1.82959625, 0.393405112),
            (2, 0.0528222192), (1.82866168, 0.0521951568), (2, 0.394028754), (1.82866168, 0.0521951568), (1.82959625, 0.393405112), (2, 0.394028754),
            (1.06228571, 0.375743486), (1.19293413, 0.378291108), (1.20867216, 1.59177679), (0, 0.375743486), (0.222222222, 1.65263761), (0.222222222, 0.44037496),
            (1.06228571, 0.375743486), (1.20867216, 1.59177679), (1.08057143, 1.58927884), (0, 0.375743486), (0, 1.58927884), (0.222222222, 1.65263761),
            (1.19293413, 0.378291108), (1.34233673, 0.381204433), (1.35516136, 1.5946333), (1.19293413, 0.378291108), (1.35516136, 1.5946333), (1.20867216, 1.59177679),
            (1.34233673, 0.381204433), (1.4997449, 0.384273865), (1.50950002, 1.59764288), (1.34233673, 0.381204433), (1.50950002, 1.59764288), (1.35516136, 1.5946333),
            (1.4997449, 0.384273865), (1.66258821, 0.387449282), (1.66916784, 1.60075637), (1.4997449, 0.384273865), (1.66916784, 1.60075637), (1.50950002, 1.59764288),
            (1.66258821, 0.387449282), (1.82959625, 0.39070591), (1.83291918, 1.6039495), (1.66258821, 0.387449282), (1.83291918, 1.6039495), (1.66916784, 1.60075637),
            (1.82959625, 0.39070591), (2, 0.394028754), (2, 1.60720754), (1.82959625, 0.39070591), (2, 1.60720754), (1.83291918, 1.6039495),
            (0, 0.394028754), (0.222222222, 0.394028754), (0.222222222, 1.60720754), (0, 1.60720754), (0, 0.394028754), (0.222222222, 1.60720754),
            (0.222222222, 0.44037496), (0.444444444, 1.63839601), (0.444444444, 0.425834545), (0.222222222, 0.44037496), (0.222222222, 1.65263761), (0.444444444, 1.63839601),
            (0.222222222, 0.394028754), (0.444444444, 0.394028754), (0.444444444, 1.60720754), (0.222222222, 1.60720754), (0.222222222, 0.394028754), (0.444444444, 1.60720754),
            (0.444444444, 0.425834545), (0.666666667, 1.56952715), (0.666666667, 0.35560793), (0.444444444, 0.425834545), (0.444444444, 1.63839601), (0.666666667, 1.56952715),
            (0.444444444, 0.394028754), (0.666666667, 0.394028754), (0.666666667, 1.60720754), (0.444444444, 1.60720754), (0.444444444, 0.394028754), (0.666666667, 1.60720754),
            (0.666666667, 0.35560793), (0.888888889, 1.56594516), (0.888888889, 0.351938298), (0.666666667, 0.35560793), (0.666666667, 1.56952715), (0.888888889, 1.56594516),
            (0.666666667, 0.394028754), (0.888888889, 0.394028754), (0.888888889, 1.60720754), (0.666666667, 1.60720754), (0.666666667, 0.394028754), (0.888888889, 1.60720754),
            (0.888888889, 0.351938298), (1.11111111, 1.63235794), (1.11111111, 0.419683879), (0.888888889, 0.351938298), (0.888888889, 1.56594516), (1.11111111, 1.63235794),
            (0.888888889, 0.394028754), (1.11111111, 0.394028754), (1.11111111, 1.60720754), (0.888888889, 1.60720754), (0.888888889, 0.394028754), (1.11111111, 1.60720754),
            (1.11111111, 0.419683879), (1.33333333, 1.65665937), (1.33333333, 0.444452319), (1.11111111, 0.419683879), (1.11111111, 1.63235794), (1.33333333, 1.65665937),
            (1.11111111, 0.394028754), (1.33333333, 0.394028754), (1.33333333, 1.60720754), (1.11111111, 1.60720754), (1.11111111, 0.394028754), (1.33333333, 1.60720754),
            (1.33333333, 0.444452319), (1.55555556, 1.5956812), (1.55555556, 0.382274269), (1.33333333, 0.444452319), (1.33333333, 1.65665937), (1.55555556, 1.5956812),
            (1.33333333, 0.394028754), (1.55555556, 0.394028754), (1.55555556, 1.60720754), (1.33333333, 1.60720754), (1.33333333, 0.394028754), (1.55555556, 1.60720754),
            (1.55555556, 0.382274269), (1.77777778, 1.55580014), (1.77777778, 0.341584681), (1.55555556, 0.382274269), (1.55555556, 1.5956812), (1.77777778, 1.55580014),
            (1.55555556, 0.394028754), (1.77777778, 0.394028754), (1.77777778, 1.60720754), (1.55555556, 1.60720754), (1.55555556, 0.394028754), (1.77777778, 1.60720754),
            (1.77777778, 0.341584681), (2, 1.60384263), (2, 0.390596916), (1.77777778, 0.341584681), (1.77777778, 1.55580014), (2, 1.60384263),
            (1.77777778, 0.394028754), (2, 0.394028754), (2, 1.60720754), (1.77777778, 1.60720754), (1.77777778, 0.394028754), (2, 1.60720754),
            (1.19293413, 0.391075062), (1.06228571, 0.390596916), (1.20867216, 1.60431145), (1.06228571, 0.390596916), (1.08057143, 1.60384263), (1.20867216, 1.60431145),
            (1.34233673, 0.391621844), (1.19293413, 0.391075062), (1.35516136, 1.60484757), (1.19293413, 0.391075062), (1.20867216, 1.60431145), (1.35516136, 1.60484757),
            (1.4997449, 0.392197925), (1.34233673, 0.391621844), (1.50950002, 1.60541242), (1.34233673, 0.391621844), (1.35516136, 1.60484757), (1.50950002, 1.60541242),
            (1.66258821, 0.392793897), (1.4997449, 0.392197925), (1.66916784, 1.60599677), (1.4997449, 0.392197925), (1.50950002, 1.60541242), (1.66916784, 1.60599677),
            (1.82959625, 0.393405112), (1.66258821, 0.392793897), (1.83291918, 1.60659606), (1.66258821, 0.392793897), (1.66916784, 1.60599677), (1.83291918, 1.60659606),
            (2, 0.394028754), (1.82959625, 0.393405112), (2, 1.60720754), (1.82959625, 0.393405112), (1.83291918, 1.60659606), (2, 1.60720754),
            (1.08057143, 1.58927884), (1.20867216, 1.59177679), (1.21309848, 1.93306963), (0, 1.58927884), (0.222222222, 1.99358648), (0.222222222, 1.65263761),
            (1.08057143, 1.58927884), (1.21309848, 1.93306963), (1.08571429, 1.93058566), (0, 1.58927884), (0, 1.93058566), (0.222222222, 1.99358648),
            (1.20867216, 1.59177679), (1.35516136, 1.5946333), (1.35876829, 1.93591017), (1.20867216, 1.59177679), (1.35876829, 1.93591017), (1.21309848, 1.93306963),
            (1.35516136, 1.5946333), (1.50950002, 1.59764288), (1.51224365, 1.93890291), (1.35516136, 1.5946333), (1.51224365, 1.93890291), (1.35876829, 1.93591017),
            (1.50950002, 1.59764288), (1.66916784, 1.60075637), (1.67101836, 1.94199899), (1.50950002, 1.59764288), (1.67101836, 1.94199899), (1.51224365, 1.93890291),
            (1.66916784, 1.60075637), (1.83291918, 1.6039495), (1.83385375, 1.94517425), (1.66916784, 1.60075637), (1.83385375, 1.94517425), (1.67101836, 1.94199899),
            (1.83291918, 1.6039495), (2, 1.60720754), (2, 1.94841408), (1.83291918, 1.6039495), (2, 1.94841408), (1.83385375, 1.94517425),
            (0, 1.60720754), (0.222222222, 1.60720754), (0.222222222, 1.94841408), (0, 1.94841408), (0, 1.60720754), (0.222222222, 1.94841408),
            (0.222222222, 1.65263761), (0.444444444, 1.97942892), (0.444444444, 1.63839601), (0.222222222, 1.65263761), (0.222222222, 1.99358648), (0.444444444, 1.97942892),
            (0.222222222, 1.60720754), (0.444444444, 1.60720754), (0.444444444, 1.94841408), (0.222222222, 1.94841408), (0.222222222, 1.60720754), (0.444444444, 1.94841408),
            (0.444444444, 1.63839601), (0.666666667, 1.91094192), (0.666666667, 1.56952715), (0.444444444, 1.63839601), (0.444444444, 1.97942892), (0.666666667, 1.91094192),
            (0.444444444, 1.60720754), (0.666666667, 1.60720754), (0.666666667, 1.94841408), (0.444444444, 1.94841408), (0.444444444, 1.60720754), (0.666666667, 1.94841408),
            (0.666666667, 1.56952715), (0.888888889, 1.90738459), (0.888888889, 1.56594516), (0.666666667, 1.56952715), (0.666666667, 1.91094192), (0.888888889, 1.90738459),
            (0.666666667, 1.60720754), (0.888888889, 1.60720754), (0.888888889, 1.94841408), (0.666666667, 1.94841408), (0.666666667, 1.60720754), (0.888888889, 1.94841408),
            (0.888888889, 1.56594516), (1.11111111, 1.97342252), (1.11111111, 1.63235794), (0.888888889, 1.56594516), (0.888888889, 1.90738459), (1.11111111, 1.97342252),
            (0.888888889, 1.60720754), (1.11111111, 1.60720754), (1.11111111, 1.94841408), (0.888888889, 1.94841408), (0.888888889, 1.60720754), (1.11111111, 1.94841408),
            (1.11111111, 1.63235794), (1.33333333, 1.99759261), (1.33333333, 1.65665937), (1.11111111, 1.63235794), (1.11111111, 1.97342252), (1.33333333, 1.99759261),
            (1.11111111, 1.60720754), (1.33333333, 1.60720754), (1.33333333, 1.94841408), (1.11111111, 1.94841408), (1.11111111, 1.60720754), (1.33333333, 1.94841408),
            (1.33333333, 1.65665937), (1.55555556, 1.93695191), (1.55555556, 1.5956812), (1.33333333, 1.65665937), (1.33333333, 1.99759261), (1.55555556, 1.93695191),
            (1.33333333, 1.60720754), (1.55555556, 1.60720754), (1.55555556, 1.94841408), (1.33333333, 1.94841408), (1.33333333, 1.60720754), (1.55555556, 1.94841408),
            (1.55555556, 1.5956812), (1.77777778, 1.89729824), (1.77777778, 1.55580014), (1.55555556, 1.5956812), (1.55555556, 1.93695191), (1.77777778, 1.89729824),
            (1.55555556, 1.60720754), (1.77777778, 1.60720754), (1.77777778, 1.94841408), (1.55555556, 1.94841408), (1.55555556, 1.60720754), (1.77777778, 1.94841408),
            (1.77777778, 1.55580014), (2, 1.94506798), (2, 1.60384263), (1.77777778, 1.55580014), (1.77777778, 1.89729824), (2, 1.94506798),
            (1.77777778, 1.60720754), (2, 1.60720754), (2, 1.94841408), (1.77777778, 1.94841408), (1.77777778, 1.60720754), (2, 1.94841408),
            (1.20867216, 1.60431145), (1.08057143, 1.60384263), (1.21309848, 1.94553418), (1.08057143, 1.60384263), (1.08571429, 1.94506798), (1.21309848, 1.94553418),
            (1.35516136, 1.60484757), (1.20867216, 1.60431145), (1.35876829, 1.9460673), (1.20867216, 1.60431145), (1.21309848, 1.94553418), (1.35876829, 1.9460673),
            (1.50950002, 1.60541242), (1.35516136, 1.60484757), (1.51224365, 1.94662899), (1.35516136, 1.60484757), (1.35876829, 1.9460673), (1.51224365, 1.94662899),
            (1.66916784, 1.60599677), (1.50950002, 1.60541242), (1.67101836, 1.94721007), (1.50950002, 1.60541242), (1.51224365, 1.94662899), (1.67101836, 1.94721007),
            (1.83291918, 1.60659606), (1.66916784, 1.60599677), (1.83385375, 1.94780602), (1.66916784, 1.60599677), (1.67101836, 1.94721007), (1.83385375, 1.94780602),
            (2, 1.60720754), (1.83291918, 1.60659606), (2, 1.94841408), (1.83291918, 1.60659606), (1.83385375, 1.94780602), (2, 1.94841408),
            (1.62857143, 0), (1.81964773, 0), (1.83599426, 0.333333333), (1.64756415, 0.333333333), (1.62857143, 0), (1.83599426, 0.333333333),
            (1.81964773, 0), (2.03815244, 0), (2.05147293, 0.333333333), (1.83599426, 0.333333333), (1.81964773, 0), (2.05147293, 0.333333333),
            (2.03815244, 0), (2.26836548, 0), (2.27849778, 0.333333333), (2.05147293, 0.333333333), (2.03815244, 0), (2.27849778, 0.333333333),
            (2.26836548, 0), (2.50652754, 0), (2.51336157, 0.333333333), (2.27849778, 0.333333333), (2.26836548, 0), (2.51336157, 0.333333333),
            (2.50652754, 0), (2.75078062, 0), (2.75423203, 0.333333333), (2.51336157, 0.333333333), (2.50652754, 0), (2.75423203, 0.333333333),
            (2.75078062, 0), (3, 0), (3, 0.333333333), (2.75423203, 0.333333333), (2.75078062, 0), (3, 0.333333333),
            (1.64756415, 0.333333333), (1.83599426, 0.333333333), (1.81397064, 0.666666667), (1.62197533, 0.666666667), (1.64756415, 0.333333333), (1.81397064, 0.666666667),
            (1.83599426, 0.333333333), (2.05147293, 0.333333333), (2.03352628, 0.666666667), (1.81397064, 0.666666667), (1.83599426, 0.333333333), (2.03352628, 0.666666667),
            (2.05147293, 0.333333333), (2.27849778, 0.333333333), (2.26484657, 0.666666667), (2.03352628, 0.666666667), (2.05147293, 0.333333333), (2.26484657, 0.666666667),
            (2.27849778, 0.333333333), (2.51336157, 0.333333333), (2.50415411, 0.666666667), (2.26484657, 0.666666667), (2.27849778, 0.333333333), (2.50415411, 0.666666667),
            (2.51336157, 0.333333333), (2.75423203, 0.333333333), (2.74958196, 0.666666667), (2.50415411, 0.666666667), (2.51336157, 0.333333333), (2.74958196, 0.666666667),
            (2.75423203, 0.333333333), (3, 0.333333333), (3, 0.666666667), (2.74958196, 0.666666667), (2.75423203, 0.333333333), (3, 0.666666667),
            (1.62197533, 0.666666667), (1.81397064, 0.666666667), (1.80527283, 1), (1.61186951, 1), (1.62197533, 0.666666667), (1.80527283, 1),
            (1.81397064, 0.666666667), (2.03352628, 0.666666667), (2.0264386, 1), (1.80527283, 1), (1.81397064, 0.666666667), (2.0264386, 1),
            (2.03352628, 0.666666667), (2.26484657, 0.666666667), (2.25945528, 1), (2.0264386, 1), (2.03352628, 0.666666667), (2.25945528, 1),
            (2.26484657, 0.666666667), (2.50415411, 0.666666667), (2.5005178, 1), (2.25945528, 1), (2.26484657, 0.666666667), (2.5005178, 1),
            (2.50415411, 0.666666667), (2.74958196, 0.666666667), (2.74774551, 1), (2.5005178, 1), (2.50415411, 0.666666667), (2.74774551, 1),
            (2.74958196, 0.666666667), (3, 0.666666667), (3, 1), (2.74774551, 1), (2.74958196, 0.666666667), (3, 1),
            (1.61186951, 1), (1.80527283, 1), (1.83031717, 1.33333333), (1.64096805, 1.33333333), (1.61186951, 1), (1.83031717, 1.33333333),
            (1.80527283, 1), (2.0264386, 1), (2.04684677, 1.33333333), (1.83031717, 1.33333333), (1.80527283, 1), (2.04684677, 1.33333333),
            (2.0264386, 1), (2.25945528, 1), (2.27497887, 1.33333333), (2.04684677, 1.33333333), (2.0264386, 1), (2.27497887, 1.33333333),
            (2.25945528, 1), (2.5005178, 1), (2.51098814, 1.33333333), (2.27497887, 1.33333333), (2.25945528, 1), (2.51098814, 1.33333333),
            (2.5005178, 1), (2.74774551, 1), (2.75303337, 1.33333333), (2.51098814, 1.33333333), (2.5005178, 1), (2.75303337, 1.33333333),
            (2.74774551, 1), (3, 1), (3, 1.33333333), (2.75303337, 1.33333333), (2.74774551, 1), (3, 1.33333333),
            (1.64096805, 1.33333333), (1.83031717, 1.33333333), (1.83031717, 1.66666667), (1.64096805, 1.66666667), (1.64096805, 1.33333333), (1.83031717, 1.66666667),
            (1.83031717, 1.33333333), (2.04684677, 1.33333333), (2.04684677, 1.66666667), (1.83031717, 1.66666667), (1.83031717, 1.33333333), (2.04684677, 1.66666667),
            (2.04684677, 1.33333333), (2.27497887, 1.33333333), (2.27497887, 1.66666667), (2.04684677, 1.66666667), (2.04684677, 1.33333333), (2.27497887, 1.66666667),
            (2.27497887, 1.33333333), (2.51098814, 1.33333333), (2.51098814, 1.66666667), (2.27497887, 1.66666667), (2.27497887, 1.33333333), (2.51098814, 1.66666667),
            (2.51098814, 1.33333333), (2.75303337, 1.33333333), (2.75303337, 1.66666667), (2.51098814, 1.66666667), (2.51098814, 1.33333333), (2.75303337, 1.66666667),
            (2.75303337, 1.33333333), (3, 1.33333333), (3, 1.66666667), (2.75303337, 1.66666667), (2.75303337, 1.33333333), (3, 1.66666667),
            (1.64096805, 1.66666667), (1.83031717, 1.66666667), (1.80527283, 2), (1.61186951, 2), (1.64096805, 1.66666667), (1.80527283, 2),
            (1.83031717, 1.66666667), (2.04684677, 1.66666667), (2.0264386, 2), (1.80527283, 2), (1.83031717, 1.66666667), (2.0264386, 2),
            (2.04684677, 1.66666667), (2.27497887, 1.66666667), (2.25945528, 2), (2.0264386, 2), (2.04684677, 1.66666667), (2.25945528, 2),
            (2.27497887, 1.66666667), (2.51098814, 1.66666667), (2.5005178, 2), (2.25945528, 2), (2.27497887, 1.66666667), (2.5005178, 2),
            (2.51098814, 1.66666667), (2.75303337, 1.66666667), (2.74774551, 2), (2.5005178, 2), (2.51098814, 1.66666667), (2.74774551, 2),
            (2.75303337, 1.66666667), (3, 1.66666667), (3, 2), (2.74774551, 2), (2.75303337, 1.66666667), (3, 2),
            (1.61186951, 2), (1.80527283, 2), (1.81397064, 2.33333333), (1.62197533, 2.33333333), (1.61186951, 2), (1.81397064, 2.33333333),
            (1.80527283, 2), (2.0264386, 2), (2.03352628, 2.33333333), (1.81397064, 2.33333333), (1.80527283, 2), (2.03352628, 2.33333333),
            (2.0264386, 2), (2.25945528, 2), (2.26484657, 2.33333333), (2.03352628, 2.33333333), (2.0264386, 2), (2.26484657, 2.33333333),
            (2.25945528, 2), (2.5005178, 2), (2.50415411, 2.33333333), (2.26484657, 2.33333333), (2.25945528, 2), (2.50415411, 2.33333333),
            (2.5005178, 2), (2.74774551, 2), (2.74958196, 2.33333333), (2.50415411, 2.33333333), (2.5005178, 2), (2.74958196, 2.33333333),
            (2.74774551, 2), (3, 2), (3, 2.33333333), (2.74958196, 2.33333333), (2.74774551, 2), (3, 2.33333333),
            (1.62197533, 2.33333333), (1.81397064, 2.33333333), (1.83599426, 2.66666667), (1.64756415, 2.66666667), (1.62197533, 2.33333333), (1.83599426, 2.66666667),
            (1.81397064, 2.33333333), (2.03352628, 2.33333333), (2.05147293, 2.66666667), (1.83599426, 2.66666667), (1.81397064, 2.33333333), (2.05147293, 2.66666667),
            (2.03352628, 2.33333333), (2.26484657, 2.33333333), (2.27849778, 2.66666667), (2.05147293, 2.66666667), (2.03352628, 2.33333333), (2.27849778, 2.66666667),
            (2.26484657, 2.33333333), (2.50415411, 2.33333333), (2.51336157, 2.66666667), (2.27849778, 2.66666667), (2.26484657, 2.33333333), (2.51336157, 2.66666667),
            (2.50415411, 2.33333333), (2.74958196, 2.33333333), (2.75423203, 2.66666667), (2.51336157, 2.66666667), (2.50415411, 2.33333333), (2.75423203, 2.66666667),
            (2.74958196, 2.33333333), (3, 2.33333333), (3, 2.66666667), (2.75423203, 2.66666667), (2.74958196, 2.33333333), (3, 2.66666667),
            (1.64756415, 2.66666667), (1.83599426, 2.66666667), (1.81964773, 3), (1.62857143, 3), (1.64756415, 2.66666667), (1.81964773, 3),
            (1.83599426, 2.66666667), (2.05147293, 2.66666667), (2.03815244, 3), (1.81964773, 3), (1.83599426, 2.66666667), (2.03815244, 3),
            (2.05147293, 2.66666667), (2.27849778, 2.66666667), (2.26836548, 3), (2.03815244, 3), (2.05147293, 2.66666667), (2.26836548, 3),
            (2.27849778, 2.66666667), (2.51336157, 2.66666667), (2.50652754, 3), (2.26836548, 3), (2.27849778, 2.66666667), (2.50652754, 3),
            (2.51336157, 2.66666667), (2.75423203, 2.66666667), (2.75078062, 3), (2.50652754, 3), (2.51336157, 2.66666667), (2.75078062, 3),
            (2.75423203, 2.66666667), (3, 2.66666667), (3, 3), (2.75078062, 3), (2.75423203, 2.66666667), (3, 3)
        ] (
            interpolation = "faceVarying"
        )
        custom string drAnmar:visualOverlay = "uv_and_material_opinions_only"

            over "SurfaceFaces"
            {
                rel material:binding = </DrAnmarNeedleReadyTissue/VisualMaterials/Surface>
            }
            over "BulkFaces"
            {
                rel material:binding = </DrAnmarNeedleReadyTissue/VisualMaterials/Bulk>
            }
            over "FasciaFaces"
            {
                rel material:binding = </DrAnmarNeedleReadyTissue/VisualMaterials/Fascia>
            }
            over "WoundFaces"
            {
                rel material:binding = </DrAnmarNeedleReadyTissue/VisualMaterials/Wound>
            }
    }
}
